<?xml version="1.0" standalone="no"?><!DOCTYPE svg PUBLIC "-//W3C//DTD SVG 1.1//EN" "http://www.w3.org/Graphics/SVG/1.1/DTD/svg11.dtd"><svg t="1499852009301" class="icon" style="" viewBox="0 0 1024 1024" version="1.1" xmlns="http://www.w3.org/2000/svg" p-id="1830" xmlns:xlink="http://www.w3.org/1999/xlink" width="64" height="64"><defs><style type="text/css"></style></defs><path d="M512 0C229.2224 0 0 229.239467 0 512 0 794.7776 229.2224 1024 512 1024 794.760533 1024 1024 794.7776 1024 512 1024 229.239467 794.760533 0 512 0L512 0ZM774.877867 686.472533C762.743467 689.117867 739.498667 669.508267 716.782933 638.805333 711.7824 672.631467 695.1936 703.522133 670.378667 728.695467 712.635733 742.1952 740.846933 767.778133 737.553067 793.2416 733.405867 825.5488 680.0384 845.4656 618.376533 837.7344 575.232 832.273067 539.4432 814.728533 523.298133 793.582933 516.6592 794.094933 509.934933 794.350933 503.125333 794.350933 499.165867 794.350933 495.240533 794.2656 491.332267 794.094933 476.2112 816.2816 438.237867 834.645333 391.697067 839.6288 328.106667 846.421333 272.657067 825.6512 267.810133 793.2416 263.936 767.607467 292.932267 742.331733 336.725333 729.5488 310.306133 703.044267 293.0176 670.139733 288.8704 634.077867 263.287467 664.712533 237.243733 681.216 227.242667 675.976533 207.752533 665.719467 203.042133 602.743467 234.683733 540.416 246.101333 517.9392 260.0448 498.363733 274.3296 483.106133 270.0288 474.897067 267.434667 464.366933 267.434667 452.898133 267.434667 433.117867 275.114667 416.1536 286.0544 408.9856 284.279467 397.858133 283.357867 386.4576 283.357867 374.8352 283.357867 253.969067 383.232 156.023467 506.402133 156.023467 629.640533 156.023467 729.531733 253.969067 729.531733 374.8352 729.531733 385.194667 728.797867 395.383467 727.381333 405.3504 743.816533 405.777067 757.077333 426.9056 757.077333 452.898133 757.077333 471.7056 750.1312 487.953067 740.061867 495.6672 752.418133 511.829333 764.074667 531.712 773.205333 553.710933 799.522133 617.130667 789.248 683.349333 774.877867 686.472533L774.877867 686.472533Z" p-id="1831" fill="#D01F3C"></path></svg>