<?xml version="1.0" standalone="no"?><!DOCTYPE svg PUBLIC "-//W3C//DTD SVG 1.1//EN" "http://www.w3.org/Graphics/SVG/1.1/DTD/svg11.dtd"><svg t="1499852042903" class="icon" style="" viewBox="0 0 1024 1024" version="1.1" xmlns="http://www.w3.org/2000/svg" p-id="2573" xmlns:xlink="http://www.w3.org/1999/xlink" width="64" height="64"><defs><style type="text/css"></style></defs><path d="M512 1024C229.216 1024 0 794.752 0 512 0 229.248 229.216 0 512 0 794.784 0 1024 229.248 1024 512 1024 794.752 794.784 1024 512 1024ZM525.056 418.592C525.056 389.056 514.944 339.072 428.128 368.608 341.344 398.272 266.88 502.336 266.88 502.336 215.072 571.424 221.92 624.864 221.92 624.864 234.848 742.816 360.192 775.2 457.664 782.88 560.224 790.912 698.624 747.52 740.608 658.368 782.56 569.056 706.304 533.728 682.048 528.896 657.856 524.224 669.6 511.168 669.6 511.168 669.6 511.168 693.248 472.192 664.896 443.84 629.792 408.704 544.416 448.288 544.416 448.288 511.84 458.432 520.448 443.68 525.056 418.592ZM715.008 470.624C715.008 479.936 722.592 487.36 731.872 487.36 740.128 487.36 747.136 481.248 748.32 473.312 748.48 472.704 748.544 472.192 748.544 471.52 761.056 359.072 656.416 378.432 656.416 378.432 647.136 378.432 639.68 385.92 639.68 395.296 639.68 404.544 647.136 412.064 656.416 412.064 731.552 395.456 715.008 470.624 715.008 470.624ZM719.68 291.104C683.52 282.624 646.304 289.952 635.872 291.936 635.072 292 634.304 292.768 633.568 292.928 633.216 292.992 632.992 293.376 632.992 293.376 622.72 296.288 615.2 305.792 615.2 317.056 615.2 330.432 626.08 341.44 639.584 341.44 639.584 341.44 652.8 339.68 661.696 336.192 670.56 332.608 745.504 333.536 782.688 396.064 803.04 441.632 791.648 472.192 790.208 477.088 790.208 477.088 785.376 488.96 785.376 500.608 785.376 514.08 796.256 522.56 809.728 522.56 820.96 522.56 830.4 521.024 833.152 501.984L833.312 501.984C873.248 368.8 784.416 306.24 719.68 291.104ZM465.248 749.6C363.456 754.368 281.152 703.328 281.152 635.392 281.152 567.36 363.456 512.832 465.248 508.128 567.136 503.456 649.6 545.408 649.6 613.28 649.6 681.216 567.136 744.992 465.248 749.6ZM444.96 552.928C342.528 564.896 354.4 660.8 354.4 660.8 354.4 660.8 353.344 691.2 381.824 706.656 441.76 739.104 503.424 719.456 534.624 679.2 565.792 638.976 547.488 541.024 444.96 552.928ZM461.6 634.496C458.016 628.832 459.36 619.744 465.92 615.008 473.536 609.344 481.408 610.944 484.832 616.64 488.256 622.432 485.792 631.104 479.456 636.128 472.992 640.96 465.024 640.288 461.6 634.496ZM419.104 687.52C399.968 689.792 384.608 678.752 384.608 662.784 384.608 646.848 398.272 630.144 417.408 628.16 439.36 626.08 453.632 638.752 453.632 654.72 453.632 670.656 438.144 685.376 419.104 687.52Z" p-id="2574" fill="#D01F3C"></path></svg>